<?xml version="1.0" encoding="utf-8"?>
<!-- Generator: Adobe Illustrator 22.1.0, SVG Export Plug-In . SVG Version: 6.00 Build 0)  -->
<svg version="1.1" id="Capa_1" xmlns="http://www.w3.org/2000/svg" xmlns:xlink="http://www.w3.org/1999/xlink" x="0px" y="0px"
	 viewBox="0 0 167 111.5" style="enable-background:new 0 0 167 111.5;" xml:space="preserve">
<style type="text/css">
	.st0{fill:url(#SVGID_1_);}
	.st1{fill:url(#SVGID_2_);}
	.st2{fill:url(#SVGID_3_);}
	.st3{fill:url(#SVGID_4_);}
	.st4{fill:url(#SVGID_5_);}
	.st5{fill:url(#SVGID_6_);}
	.st6{fill:url(#SVGID_7_);}
	.st7{fill:#535353;}
	.st8{fill:url(#SVGID_8_);}
	.st9{fill:url(#SVGID_9_);}
</style>
<g>
	<title>4315D9A1-6D32-4D5F-BFD8-916FF26270D4</title>
	<desc>Created with sketchtool.</desc>
	<g>
		<g>
			<linearGradient id="SVGID_1_" gradientUnits="userSpaceOnUse" x1="3.4375" y1="91.1315" x2="24.5459" y2="91.1315">
				<stop  offset="0" style="stop-color:#378B80"/>
				<stop  offset="1" style="stop-color:#378B80"/>
			</linearGradient>
			<path class="st0" d="M3.4,77.1h4.4l6.2,21.4H14l6.2-21.4h4.4l-9,28h-3.2L3.4,77.1z"/>
			<linearGradient id="SVGID_2_" gradientUnits="userSpaceOnUse" x1="26.53" y1="91.1315" x2="45.908" y2="91.1315">
				<stop  offset="0" style="stop-color:#378B80"/>
				<stop  offset="1" style="stop-color:#378B80"/>
			</linearGradient>
			<path class="st1" d="M26.5,91.1c0-3.3,0.1-5.4,0.3-6.6c0.2-1.1,0.5-2,0.9-2.7c0.7-1.3,1.7-2.4,3.2-3.4c1.4-1,3.2-1.5,5.3-1.6
				c2.2,0,4,0.6,5.4,1.6c1.4,1,2.5,2.2,3.1,3.5c0.5,0.7,0.8,1.6,0.9,2.7c0.2,1.1,0.2,3.3,0.2,6.5c0,3.2-0.1,5.4-0.2,6.5
				c-0.2,1.1-0.5,2-0.9,2.7c-0.6,1.3-1.7,2.4-3.1,3.4c-1.4,1-3.2,1.6-5.4,1.6c-2.1-0.1-3.9-0.6-5.3-1.6c-1.5-1-2.5-2.1-3.2-3.4
				c-0.2-0.4-0.4-0.8-0.5-1.2c-0.1-0.4-0.3-0.9-0.4-1.5C26.6,96.5,26.5,94.3,26.5,91.1z M30.6,91.1c0,2.8,0.1,4.6,0.3,5.6
				c0.2,1,0.5,1.8,1.1,2.4c0.4,0.6,1,1,1.7,1.4c0.7,0.4,1.5,0.6,2.5,0.6c1,0,1.8-0.2,2.6-0.6c0.7-0.4,1.2-0.8,1.6-1.4
				c0.5-0.6,0.9-1.4,1.1-2.4c0.2-1,0.3-2.8,0.3-5.6s-0.1-4.6-0.3-5.6c-0.2-1-0.6-1.7-1.1-2.3c-0.4-0.6-1-1.1-1.6-1.4
				c-0.7-0.4-1.6-0.6-2.6-0.6c-1,0-1.8,0.2-2.5,0.6c-0.7,0.4-1.3,0.9-1.7,1.4c-0.5,0.6-0.9,1.4-1.1,2.3
				C30.7,86.5,30.6,88.4,30.6,91.1z"/>
			<linearGradient id="SVGID_3_" gradientUnits="userSpaceOnUse" x1="51.4684" y1="91.1315" x2="71.3492" y2="91.1315">
				<stop  offset="0" style="stop-color:#378B80"/>
				<stop  offset="1" style="stop-color:#378B80"/>
			</linearGradient>
			<path class="st2" d="M51.5,77.1h10.6c2.3,0,4.1,0.6,5.5,1.8c1.7,1.4,2.6,3.4,2.7,6c0,3.8-1.8,6.4-5.2,7.8l6.3,12.4h-4.9l-5.6-12
				h-5.3v12h-4.1V77.1z M55.6,89.4h6.2c1.5,0,2.7-0.5,3.5-1.4c0.8-0.8,1.1-1.9,1.1-3.1c0-1.5-0.5-2.5-1.4-3.2
				c-0.7-0.6-1.7-0.9-3-0.9h-6.5V89.4z"/>
			<linearGradient id="SVGID_4_" gradientUnits="userSpaceOnUse" x1="71.9448" y1="91.1315" x2="90.9454" y2="91.1315">
				<stop  offset="0" style="stop-color:#378B80"/>
				<stop  offset="1" style="stop-color:#378B80"/>
			</linearGradient>
			<path class="st3" d="M79.4,80.9h-7.4v-3.8h19v3.8h-7.4v24.3h-4.1V80.9z"/>
			<linearGradient id="SVGID_5_" gradientUnits="userSpaceOnUse" x1="94.4616" y1="91.1315" x2="111.8084" y2="91.1315">
				<stop  offset="0" style="stop-color:#378B80"/>
				<stop  offset="1" style="stop-color:#378B80"/>
			</linearGradient>
			<path class="st4" d="M94.5,77.1h17.3v4H98.6v8h11.3v3.8H98.6v8.3h13.2v4H94.5V77.1z"/>
			<linearGradient id="SVGID_6_" gradientUnits="userSpaceOnUse" x1="113.5355" y1="91.1315" x2="136.7206" y2="91.1315">
				<stop  offset="0" style="stop-color:#378B80"/>
				<stop  offset="1" style="stop-color:#378B80"/>
			</linearGradient>
			<path class="st5" d="M130.3,98.9H120l-2.1,6.3h-4.4l9.9-28h3.4l9.9,28h-4.3L130.3,98.9z M129.1,95.1l-3.9-12.3h-0.1l-3.9,12.3
				H129.1z"/>
			<linearGradient id="SVGID_7_" gradientUnits="userSpaceOnUse" x1="140.3775" y1="91.1315" x2="163.5625" y2="91.1315">
				<stop  offset="0" style="stop-color:#378B80"/>
				<stop  offset="1" style="stop-color:#378B80"/>
			</linearGradient>
			<path class="st6" d="M140.4,77.1h3.9l7.8,18.3l7.6-18.3h3.9v28h-4.1V87.7h-0.1l-5.7,13.5h-3.4l-5.7-13.5h-0.1v17.5h-4.1V77.1z"/>
		</g>
	</g>
	<g>
		<g>
			<polygon class="st7" points="69.1,63.3 59.9,63.3 59.9,54.4 56.9,51.4 56.9,66.3 71.8,66.3 69,63.4 			"/>
			<polygon class="st7" points="59.9,16.2 69.1,16.2 69,16.1 71.9,13.2 56.9,13.2 56.9,28.2 59.9,25.1 			"/>
			<polygon class="st7" points="107.1,16.2 107.1,25.1 110.1,28.1 110.1,13.2 95.2,13.2 98.2,16.2 			"/>
			<polygon class="st7" points="107.1,63.3 98.1,63.3 95.1,66.3 110.1,66.3 110.1,51.3 107.1,54.4 			"/>
			<polygon class="st7" points="62.2,39.7 59.2,39.7 49.9,39.7 49.8,39.7 59.2,49.1 62.2,52.1 66.6,56.5 83.3,39.7 			"/>
			<linearGradient id="SVGID_8_" gradientUnits="userSpaceOnUse" x1="30.3933" y1="31.3735" x2="83.3999" y2="31.3735">
				<stop  offset="0" style="stop-color:#378B80"/>
				<stop  offset="1" style="stop-color:#378B80"/>
			</linearGradient>
			<polygon class="st8" points="66.6,23 62.2,27.4 59.2,30.4 49.9,39.7 59.2,39.7 62.2,39.7 83.3,39.7 83.4,39.7 			"/>
			<linearGradient id="SVGID_9_" gradientUnits="userSpaceOnUse" x1="71.0765" y1="56.5631" x2="134.0203" y2="56.5631">
				<stop  offset="0" style="stop-color:#378B80"/>
				<stop  offset="1" style="stop-color:#378B80"/>
			</linearGradient>
			<polygon class="st9" points="107.8,39.7 104.8,39.7 92.7,39.7 92.6,39.7 71.4,61 71.2,61.1 74.1,64 83.5,73.4 92.8,64 95.8,61 
				104.8,52.1 107.8,49.1 117.1,39.7 			"/>
			<polygon class="st7" points="107.8,30.4 104.8,27.4 95.9,18.5 92.9,15.5 83.5,6.1 74.2,15.5 71.3,18.4 71.4,18.5 92.7,39.7 
				104.8,39.7 107.8,39.7 117.1,39.7 117.2,39.7 			"/>
		</g>
	</g>
</g>
</svg>
